<svg width="229" height="128" fill="none" xmlns="http://www.w3.org/2000/svg">
  <path d="M81.962 4.923c-27.382 0-50.926 19.5-55.985 46.367l-.22 1.163-1.045.555C12.505 59.484 4.923 72.082 4.923 85.884c0 20.509 16.685 37.194 37.194 37.194l140.933-.161.102.01c2.122.174 4.177.173 6.301-.009l.192-.017c9.208-.829 17.738-5.05 24.02-11.886a37.093 37.093 0 0 0 9.801-25.163c0-14.45-8.478-27.709-21.601-33.781l-1.149-.532-.235-1.245c-3.982-21.108-22.487-36.429-44.001-36.429a44.831 44.831 0 0 0-28.616 10.337l-1.827 1.519-1.583-1.77A57.053 57.053 0 0 0 81.962 4.922zM42.12 128C18.894 128 0 109.107 0 85.884A42.051 42.051 0 0 1 21.368 49.23C27.31 20.633 52.608 0 81.962 0c16.825 0 32.941 6.886 44.583 18.968A49.789 49.789 0 0 1 156.48 8.942c23.458 0 43.695 16.413 48.59 39.208 14.207 7.102 23.32 21.762 23.32 37.702a42.002 42.002 0 0 1-11.1 28.492c-6.6 7.183-15.396 11.818-24.965 13.198v.27l-2.558.02a42.04 42.04 0 0 1-6.917.008L42.12 128z" fill="#fff"/>
  <path d="M121.71 66.677c.815-1.006 1.617-2.023 2.449-3.015 1.851-2.203 3.967-4.074 6.731-5.05 2.724-.961 5.504-1.032 8.244-.134 3.039.997 4.569 3.332 5.221 6.337.251 1.154.366 2.324.366 3.504.004 6.96-.003 13.919.015 20.878.002.526-.164.63-.649.626a402.487 402.487 0 0 0-7.731.001c-.522.006-.63-.163-.628-.652.015-5.782.004-11.566.011-17.348.001-1.167-.126-2.314-.557-3.4-.838-2.107-2.631-3.256-5.016-3.254-4.008.005-6.782 2.42-7.47 6.498a17.887 17.887 0 0 0-.243 2.968c.004 4.85-.006 9.699.011 14.548.002.5-.123.646-.635.64a461.015 461.015 0 0 0-7.792-.004c-.443.003-.632-.07-.632-.587.017-10.328.015-20.655.005-30.984 0-.402.074-.56.523-.555 2.374.023 4.747.022 7.122 0 .444-.004.533.145.53.555-.017 2.577-.008 5.155-.008 7.73v.653l.133.045zM83.762 64.537c0-8.196.007-16.39-.014-24.587-.001-.58.179-.699.718-.693 2.636.026 5.275.024 7.911.003.476-.004.609.124.609.606-.013 16.451-.013 32.904.001 49.356 0 .496-.151.603-.614.599-2.638-.02-5.275-.024-7.913.003-.546.005-.712-.128-.71-.7.02-8.195.014-16.39.012-24.587zM107.63 73.774c0 5.111-.008 10.222.009 15.332.003.53-.1.729-.687.72a359.657 359.657 0 0 0-7.91-.004c-.482.004-.608-.132-.606-.608.012-10.305.012-20.608 0-30.911 0-.46.096-.616.591-.612 2.637.028 5.273.03 7.911.002.543-.006.708.119.706.687-.023 5.131-.014 10.263-.014 15.394zM102.972 51.378c-2.779-.015-5.08-2.35-5.068-5.144.012-2.934 2.231-5.121 5.18-5.106 2.912.016 5.027 2.206 5.004 5.186a5.062 5.062 0 0 1-5.116 5.064zM173.153 83.867c.001.38-.086.562-.487.674-1.862.518-3.73.987-5.684.744-2.972-.368-5.049-2.062-6.535-4.552-1.409-2.363-1.79-4.967-1.616-7.671.146-2.296.811-4.415 2.23-6.26 2.038-2.646 4.717-3.636 7.994-3.086 1.223.206 2.397.582 3.582.933.399.119.522.303.519.722-.021 3.082-.011 6.165-.011 9.247 0 3.084-.006 6.166.008 9.25zm9.051-25.92c.001-.439-.139-.538-.552-.536-3.348.01-6.696-.036-10.043.001-2.939.034-5.887-.083-8.814.276-5.201.641-9.068 3.301-11.43 7.943-2.376 4.665-2.537 9.62-1.058 14.561 1.972 6.587 7.872 10.878 14.847 11.123 2.572.09 5.094-.272 7.621-.64.387-.056.496.014.48.41-.057 1.54-.02 3.087-.139 4.622-.218 2.82-1.531 5.003-4.023 6.409-1.347.76-2.822 1.11-4.351 1.238-3.239.271-6.33-.396-9.348-1.503-1.233-.449-2.426-.997-3.614-1.529 0 2.093.007 4.121-.005 6.148-.002.374.265.414.501.501 2.185.815 4.411 1.495 6.705 1.935 3.9.748 7.808.951 11.714.053 4.357-1 7.756-3.297 9.795-7.381 1.223-2.45 1.619-5.088 1.65-7.784.128-11.949.021-23.898.064-35.847M66.996 82.064c-2.249 2.758-5.161 3.713-8.627 3.099-.895-.159-1.776-.398-2.656-.631-.403-.108-.498-.285-.496-.667.012-3.103.007-6.205.007-9.308 0-2.982.017-5.963-.016-8.944-.007-.6.133-.89.744-1.052 1.193-.319 2.365-.716 3.592-.893 3.748-.542 6.512.96 8.438 4.122 2.492 4.092 2.04 10.563-.986 14.274zm11.046-13.892c-1.216-4.138-3.808-7.244-7.724-9.158-2.344-1.147-4.867-1.48-7.44-1.539-5.294-.119-10.59-.111-15.885-.078-.819.006-.82.002-.82.813v25.378c0 8.522.005 17.042-.01 25.562-.002.518.107.682.662.675 2.454-.035 4.909-.016 7.363-.017.94 0 .942 0 .942-.968.002-5.761.002-11.523.002-17.284 0-.98-.002-.966.973-.818 2.77.42 5.54.796 8.352.447 5.495-.682 9.788-3.26 12.422-8.184 2.53-4.731 2.646-9.773 1.163-14.83" fill="#fff"/>
</svg>
